<svg width="30" height="32" viewBox="0 0 30 32" fill="none" xmlns="http://www.w3.org/2000/svg">
<path d="M19.8158 16.16L27.8558 25C28.7624 26.0133 29.2158 26.8667 29.2158 27.56C29.2158 28.2533 28.6958 29.0667 27.6558 30C26.6424 30.9333 25.7758 31.4 25.0558 31.4C24.3624 31.4 23.5491 30.8667 22.6158 29.8L15.0158 21.08L7.41578 29.8C6.45578 30.8667 5.62911 31.4 4.93578 31.4C4.26911 31.4 3.40245 30.9333 2.33578 30C1.29578 29.04 0.775781 28.2267 0.775781 27.56C0.775781 26.8933 1.24245 26.04 2.17578 25L10.2158 16.16L2.17578 7.32C1.24245 6.33333 0.775781 5.49333 0.775781 4.8C0.775781 4.10666 1.29578 3.29333 2.33578 2.36C3.37578 1.4 4.24245 0.919999 4.93578 0.919999C5.65578 0.919999 6.48245 1.45333 7.41578 2.52L15.0158 11.24L22.6158 2.52C23.5758 1.45333 24.3891 0.919999 25.0558 0.919999C25.7491 0.919999 26.6158 1.38667 27.6558 2.32C28.6958 3.25333 29.2158 4.08 29.2158 4.8C29.2158 5.52 28.7624 6.36 27.8558 7.32L19.8158 16.16Z" fill="#FFBCBC"/>
</svg>
